# xmcd
#
# Track frame offsets: 
#        150
#        18797
#        42047
#        54805
#        69373
#        83575
#        104677
#        122340
#        145132
#        152353
#        172360
#
# Disc length: 2474 seconds
#
# Revision: 0
# Processed by: cddbd v1.5.2PL0 Copyright (c) Steve Scherf et al.
# Submitted via: ExactAudioCopyFreeDBPlugin 1.0
#
DISCID=7e09a80b
DTITLE=Maverick Festival - Live in the Barn 2012
DYEAR=2012
DGENRE=Americana
TTITLE0=Kara Grainger - Sky is Falling
TTITLE1=Eve Selis - Hallelujah
TTITLE2=KC McKanzie - Lovesick Boy
TTITLE3=Amy Speace - The Killer in Me
TTITLE4=My Darling Clementine - Going Back to Memphis
TTITLE5=Carrie Rodriguez - Seven Angels on a Bicycle
TTITLE6=Andrew Duhon - Just Another Beautiful Girl
TTITLE7=Hatful of Rain - The Exit Song
TTITLE8=Jason Ringenberg - Self Sabotage
TTITLE9=Police Dog Hogan - Haynes Lane
TTITLE10=The Rabble Chorus - Down to the River to Pray
EXTD=
EXTT0=
EXTT1=
EXTT2=
EXTT3=
EXTT4=
EXTT5=
EXTT6=
EXTT7=
EXTT8=
EXTT9=
EXTT10=
PLAYORDER=
